<svg width="24" height="24" viewBox="0 0 24 24" fill="none" xmlns="http://www.w3.org/2000/svg">
<path d="M12.6562 0.00927734C12.6562 1.6024 12.6562 3.12993 12.6562 4.65746C12.6562 5.41654 12.8719 5.63208 13.6312 5.63208C15.1594 5.63208 16.6875 5.63208 18.2812 5.63208C18.2812 6.63481 18.2906 7.60943 18.2719 8.58405C18.2719 8.70588 18.1125 8.83708 18.0094 8.94953C16.5938 10.3646 15.1875 11.7797 13.7625 13.1854C13.2844 13.6539 12.9375 14.1881 12.75 14.8347C12.5813 15.4158 12.3656 15.9874 12.1875 16.5684C11.9812 17.2432 12.1312 17.8429 12.6281 18.3302C13.1344 18.8269 13.7531 18.9769 14.4375 18.7426C14.5969 18.6864 14.7562 18.6301 14.925 18.5739C16.1437 18.1897 17.4 17.8617 18.2438 16.6059C18.2719 16.8589 18.2906 16.9714 18.2906 17.0932C18.2906 18.6395 18.3 20.1858 18.2906 21.732C18.2812 23.119 17.3906 23.9999 15.9938 23.9999C11.4281 23.9999 6.87188 23.9999 2.30625 23.9999C0.88125 23.9905 0 23.119 0 21.7227C0 15.2471 0 8.76211 0 2.27714C0 0.899554 0.88125 0.00927734 2.24062 0.00927734C5.56875 0.00927734 8.89687 0.00927734 12.225 0.00927734C12.3469 0.00927734 12.4688 0.00927734 12.6562 0.00927734ZM8.42813 8.44348C9.99375 8.44348 11.55 8.44348 13.1156 8.44348C13.7062 8.44348 14.0344 8.19046 14.0438 7.75C14.0531 7.30955 13.7156 7.03778 13.1344 7.03778C9.99375 7.03778 6.85312 7.03778 3.7125 7.03778C3.68437 7.03778 3.64687 7.03778 3.61875 7.03778C3.12187 7.05652 2.80312 7.33766 2.8125 7.75C2.82188 8.1436 3.12188 8.44348 3.6 8.44348C5.2125 8.42474 6.81563 8.44348 8.42813 8.44348ZM6.99375 11.2549C8.11875 11.2549 9.24375 11.2549 10.3687 11.2549C10.9031 11.2549 11.2406 10.9737 11.2313 10.5427C11.2219 10.1303 10.9031 9.84918 10.3969 9.84918C8.14688 9.84918 5.89688 9.84918 3.64688 9.84918C3.14063 9.84918 2.82188 10.121 2.8125 10.5427C2.80312 10.9737 3.14062 11.2549 3.66562 11.2549C4.77187 11.2549 5.8875 11.2549 6.99375 11.2549ZM7.03125 14.0663C8.12813 14.0663 9.21562 14.0663 10.3125 14.0663C10.8938 14.0663 11.2312 13.8039 11.2406 13.3634C11.2406 12.923 10.9031 12.6606 10.3219 12.6606C8.11875 12.6606 5.91562 12.6606 3.7125 12.6606C3.15 12.6606 2.80313 12.9417 2.82188 13.3822C2.83125 13.8133 3.15937 14.0663 3.7125 14.0663C4.80937 14.0663 5.91563 14.0663 7.03125 14.0663ZM6.98438 16.8777C8.10938 16.8777 9.23438 16.8777 10.3594 16.8777C10.9031 16.8777 11.2313 16.6059 11.2313 16.1748C11.2313 15.7438 10.8938 15.472 10.3594 15.472C8.1375 15.472 5.925 15.472 3.70312 15.472C3.14062 15.472 2.79375 15.7531 2.8125 16.1936C2.83125 16.6153 3.15 16.8683 3.70312 16.8777C4.8 16.8777 5.8875 16.8777 6.98438 16.8777ZM11.2406 19.6891C10.5656 19.6891 9.9 19.6797 9.225 19.6891C8.71875 19.6985 8.41875 19.9702 8.42813 20.4013C8.4375 20.8324 8.72812 21.0948 9.24375 21.0948C10.575 21.1042 11.8969 21.1042 13.2281 21.0948C13.725 21.0948 14.0531 20.7949 14.0438 20.3826C14.0344 19.9702 13.7156 19.6985 13.2094 19.6891C12.5531 19.6797 11.8969 19.6891 11.2406 19.6891Z" fill="url(#paint0_linear_38_38882)"/>
<path d="M16.941 15.8562C16.3223 15.2377 15.6754 14.5911 15.0566 13.9819C16.5473 12.4919 18.066 10.9737 19.5473 9.50244C20.1473 10.1022 20.8035 10.7582 21.4223 11.3861C19.9598 12.8386 18.4316 14.3662 16.941 15.8562Z" fill="url(#paint1_linear_38_38882)"/>
<path d="M14.0625 4.1796C14.0625 2.80201 14.0625 1.4338 14.0625 0.0374698C14.5781 -0.0281296 15.2719 -0.0375009 15.6281 0.290496C16.4625 1.06832 17.1094 1.78054 17.8688 2.63333C18.1594 2.96133 18.2906 3.2987 18.2906 4.1796C16.7531 4.1796 15.4688 4.1796 14.0625 4.1796Z" fill="url(#paint2_linear_38_38882)"/>
<path d="M20.6621 8.26564C20.9715 7.96576 21.309 7.58154 21.7027 7.25354C22.2652 6.78497 23.1371 6.85994 23.6152 7.36599C24.1121 7.89079 24.1402 8.66861 23.6434 9.23089C23.3152 9.60575 22.9309 9.92437 22.6027 10.2524C21.984 9.61512 21.3465 8.95912 20.6621 8.26564Z" fill="url(#paint3_linear_38_38882)"/>
<path d="M14.0909 15.2002C14.6344 15.7531 15.1498 16.2685 15.6934 16.8214C15.103 17.0182 14.5032 17.2431 13.8847 17.4212C13.5848 17.5055 13.4161 17.215 13.538 16.8496C13.716 16.2966 13.9128 15.7531 14.0909 15.2002Z" fill="url(#paint4_linear_38_38882)"/>
<defs>
<linearGradient id="paint0_linear_38_38882" x1="1.89541" y1="0.00927718" x2="16.1665" y2="21.9643" gradientUnits="userSpaceOnUse">
<stop stop-color="#FEB49C"/>
<stop offset="1" stop-color="#FD6B87"/>
</linearGradient>
<linearGradient id="paint1_linear_38_38882" x1="15.7161" y1="9.50244" x2="19.0038" y2="16.1473" gradientUnits="userSpaceOnUse">
<stop stop-color="#FEB49C"/>
<stop offset="1" stop-color="#FD6B87"/>
</linearGradient>
<linearGradient id="paint2_linear_38_38882" x1="14.5005" y1="0.000976534" x2="16.6497" y2="4.38797" gradientUnits="userSpaceOnUse">
<stop stop-color="#FEB49C"/>
<stop offset="1" stop-color="#FD6B87"/>
</linearGradient>
<linearGradient id="paint3_linear_38_38882" x1="21.0082" y1="6.94092" x2="22.7146" y2="10.4132" gradientUnits="userSpaceOnUse">
<stop stop-color="#FEB49C"/>
<stop offset="1" stop-color="#FD6B87"/>
</linearGradient>
<linearGradient id="paint4_linear_38_38882" x1="13.7255" y1="15.2002" x2="14.8963" y2="17.5196" gradientUnits="userSpaceOnUse">
<stop stop-color="#FEB49C"/>
<stop offset="1" stop-color="#FD6B87"/>
</linearGradient>
</defs>
</svg>
