<svg width="24" height="24" viewBox="0 0 24 24" fill="none" xmlns="http://www.w3.org/2000/svg">
<g clip-path="url(#clip0_38_39021)">
<path d="M9.01875 5.25C11.2219 5.25 13.425 5.25 15.6281 5.25C17.0531 5.25 18 6.20625 18 7.63125C18 11.2875 18 14.9438 18 18.5906C18 20.0438 17.0531 20.9906 15.5906 20.9906C12.6375 20.9906 9.68438 20.9812 6.73125 21C6.45 21 6.12188 21.1219 5.89688 21.2906C4.86563 22.0781 3.8625 22.8937 2.85 23.7094C2.56875 23.9344 2.27813 24.0938 1.9125 23.9062C1.55625 23.7188 1.47187 23.4094 1.49062 23.0438C1.5 22.7156 1.48125 22.3875 1.5 22.0594C1.5375 21.3844 1.54688 20.8031 0.7875 20.4C0.196875 20.0906 0 19.3969 0 18.7031C0 14.9906 0 11.2687 0 7.55625C0 6.23437 0.984375 5.25937 2.31563 5.25937C4.55625 5.25 6.7875 5.25 9.01875 5.25ZM11.8594 11.1375C11.8125 10.8656 11.7937 10.5844 11.7188 10.3125C11.3906 9.14062 10.3031 8.29688 9.10312 8.25C7.82812 8.20312 6.675 8.95313 6.24375 10.1156C6.06562 10.6031 6.19688 10.9969 6.60938 11.1844C7.0125 11.3625 7.3875 11.1844 7.62188 10.7156C7.66875 10.6219 7.71563 10.5187 7.77188 10.425C8.1 9.88125 8.75625 9.62812 9.34687 9.81562C9.88125 9.98437 10.2281 10.3406 10.3125 10.9031C10.4062 11.5125 10.2 12.0094 9.66562 12.3375C8.76562 12.8906 8.25937 13.6875 8.20312 14.7469C8.175 15.2344 8.475 15.6094 8.89688 15.6469C9.3 15.6844 9.64688 15.3844 9.68438 14.9062C9.74063 14.2969 10.0312 13.8844 10.5375 13.5469C11.3906 12.9938 11.8313 12.1781 11.8594 11.1375ZM9.01875 16.5C8.61562 16.4906 8.26875 16.8187 8.25 17.2219C8.23125 17.625 8.55937 17.9812 8.9625 18C9.375 18.0281 9.75 17.6719 9.75 17.2594C9.75 16.8563 9.42188 16.5094 9.01875 16.5Z" fill="url(#paint0_linear_38_39021)"/>
<path d="M6.00915 3.75005C6.00915 3.14067 5.98102 2.58755 6.01852 2.0438C6.08415 0.946924 7.04977 0.0187988 8.15602 0.00942383C12.7216 -0.00932617 17.2779 -0.00932617 21.8435 0.00942383C23.006 0.00942383 23.9904 1.01255 23.9998 2.17505C24.0185 5.97192 24.0185 9.7688 23.9998 13.5657C23.9998 14.4094 23.5685 15.0657 22.8279 15.4594C22.5654 15.6 22.4904 15.7594 22.4998 16.0407C22.5185 16.6501 22.4998 17.2594 22.5091 17.8688C22.5185 18.2251 22.406 18.5063 22.0685 18.6751C21.7404 18.8438 21.4685 18.7219 21.206 18.5157C21.1779 18.4969 21.1591 18.4782 21.131 18.4501C20.5966 18.0188 19.8654 17.6813 19.5935 17.1188C19.3216 16.5563 19.5091 15.7782 19.5091 15.0938C19.5091 12.6094 19.5091 10.125 19.5091 7.64067C19.5091 5.37192 17.8873 3.75005 15.6185 3.75005C12.5998 3.75005 9.5904 3.75005 6.57165 3.75005C6.39352 3.75005 6.22477 3.75005 6.00915 3.75005Z" fill="url(#paint1_linear_38_39021)"/>
</g>
<defs>
<linearGradient id="paint0_linear_38_39021" x1="1.86486" y1="5.25" x2="11.8062" y2="24.5147" gradientUnits="userSpaceOnUse">
<stop stop-color="#CE80FF"/>
<stop offset="1" stop-color="#8A75FF"/>
</linearGradient>
<linearGradient id="paint1_linear_38_39021" x1="7.86542" y1="-0.0046388" x2="17.819" y2="19.2788" gradientUnits="userSpaceOnUse">
<stop stop-color="#CE80FF"/>
<stop offset="1" stop-color="#8A75FF"/>
</linearGradient>
<clipPath id="clip0_38_39021">
<rect width="24" height="24" fill="white"/>
</clipPath>
</defs>
</svg>
