<svg width="24" height="24" viewBox="0 0 24 24" fill="none" xmlns="http://www.w3.org/2000/svg">
<g clip-path="url(#clip0_38_27046)">
<path d="M4.09836 20.4924C3.37761 20.4719 2.78595 20.2061 2.31261 19.6845C1.36595 18.621 0.645201 17.4349 0.161114 16.1259C-0.172369 15.2261 -0.0217641 14.3671 0.752776 13.7536C1.94686 12.8026 1.9361 11.1869 0.752776 10.2461C-0.0217641 9.6121 -0.172369 8.73268 0.171871 7.82258C0.655959 6.53413 1.38747 5.35816 2.32337 4.31513C2.95807 3.60954 3.79715 3.30277 4.73305 3.61977C6.38971 4.17197 7.7344 3.21074 7.99258 1.82003C8.15394 0.940606 8.79939 0.388412 9.7353 0.214573C11.2306 -0.0717499 12.7259 -0.0717499 14.2212 0.204347C15.1894 0.388412 15.781 0.981509 16.0392 1.88138C16.491 3.48684 17.5345 4.05948 19.2234 3.59932C20.2024 3.33345 21.0307 3.58909 21.6869 4.31513C22.6443 5.36839 23.3651 6.56481 23.8384 7.87371C24.1719 8.77358 23.9782 9.58142 23.2467 10.2563C22.0096 11.4016 22.0096 12.5674 23.2575 13.7433C23.9782 14.4182 24.1719 15.2261 23.8491 16.1362C23.3651 17.4655 22.612 18.662 21.6439 19.7254C21.0092 20.4106 20.2024 20.6458 19.2664 20.4003C17.5452 19.9402 16.5018 20.5026 16.0392 22.1387C15.781 23.0488 15.1894 23.6215 14.2212 23.8055C12.7474 24.0714 11.2629 24.0816 9.78908 23.8055C8.82091 23.6215 8.21849 23.0386 7.97106 22.1387C7.53001 20.5333 6.48653 19.9606 4.7976 20.4106C4.56093 20.4515 4.34578 20.5026 4.09836 20.4924ZM16.5233 12.5674C16.5018 12.7412 16.5018 12.8537 16.4803 12.9662C15.8671 15.4715 13.1992 16.9133 10.5959 16.1566C9.76757 15.9214 9.1759 16.1566 8.95 16.8315C8.7456 17.4553 9.1006 18.0075 9.89666 18.2325C12.3063 18.9176 14.5009 18.5086 16.4372 16.9951C18.5887 15.3181 19.4386 12.3731 18.5242 9.91888C18.2122 9.09058 17.3409 8.76336 16.7062 9.2951C15.9424 9.9291 15.2324 10.6347 14.5439 11.3505C14.1674 11.7493 14.2427 12.3628 14.63 12.7412C15.0172 13.1196 15.6304 13.1809 16.1037 12.8844C16.2328 12.8026 16.3512 12.7003 16.5233 12.5674ZM7.47622 11.4221C7.48698 11.2789 7.48698 11.1971 7.49773 11.1153C8.05712 8.60997 10.7357 7.09655 13.3175 7.81236C13.5219 7.87371 13.7263 7.94529 13.9415 7.94529C14.4901 7.96574 14.9742 7.57716 15.0818 7.04542C15.1894 6.51368 14.8559 6.01261 14.2319 5.79787C11.7147 4.90822 8.61651 5.67516 6.82001 7.69987C5.14184 9.59165 4.69002 11.7391 5.48608 14.1012C5.76577 14.9295 6.66941 15.2363 7.3041 14.6943C8.05712 14.0603 8.7456 13.3752 9.43408 12.6798C9.8106 12.2913 9.76757 11.7084 9.42333 11.3198C9.06833 10.921 8.48742 10.8085 8.01409 11.0539C7.85273 11.1357 7.70213 11.2687 7.47622 11.4221Z" fill="url(#paint0_linear_38_27046)"/>
</g>
<defs>
<linearGradient id="paint0_linear_38_27046" x1="2.48124" y1="-0.00146501" x2="14.9203" y2="25.0886" gradientUnits="userSpaceOnUse">
<stop stop-color="#BBE897"/>
<stop offset="1" stop-color="#08CD87"/>
</linearGradient>
<clipPath id="clip0_38_27046">
<rect width="24" height="24" fill="white"/>
</clipPath>
</defs>
</svg>
