<?xml version="1.0" encoding="UTF-8"?>
<svg id="Layer_1" data-name="Layer 1" xmlns="http://www.w3.org/2000/svg" viewBox="0 0 24 24">
  <defs>
    <style>
      .cls-1 {
        fill: #fff;
      }

      .cls-2 {
        fill: #a7aaad;
      }

      .cls-3 {
        fill: #ebeced;
      }
    </style>
  </defs>
  <rect class="cls-2" width="24" height="24" rx="1.76" ry="1.76"/>
  <polygon class="cls-1" points="11.6 17.05 11.6 20.19 9.41 18.9 7.79 17.94 4.89 16.23 4.89 13.11 4.91 13.1 7.55 14.66 7.82 14.82 10.45 16.37 11.6 17.05"/>
  <polygon class="cls-3" points="19.18 13.1 19.18 13.12 16.57 14.66 15.01 13.74 14.96 13.71 17.59 12.15 17.8 12.28 19.18 13.1"/>
  <polygon class="cls-1" points="19.18 13.12 19.18 16.26 14.72 18.9 12.5 20.21 12.5 17.07 13.68 16.37 16.31 14.82 16.57 14.66 19.18 13.12"/>
  <polygon class="cls-3" points="9.17 13.71 9.12 13.73 9.12 13.73 7.55 14.66 4.91 13.1 5.17 12.94 6.52 12.14 9.17 13.71"/>
  <polygon class="cls-1" points="11.6 12.03 11.6 15.14 9.43 13.86 9.43 13.86 9.17 13.71 6.52 12.14 4.9 11.18 4.89 11.18 4.89 8.11 4.93 8.09 7.53 9.63 11.6 12.03"/>
  <polygon class="cls-3" points="19.18 8.07 19.18 8.1 16.6 9.62 12.5 7.2 12.5 4.12 14.68 5.4 19.18 8.07"/>
  <polygon class="cls-3" points="11.6 4.15 11.6 7.23 7.53 9.63 4.93 8.09 9.47 5.41 9.47 5.41 11.6 4.15"/>
  <polygon class="cls-1" points="19.18 8.1 19.18 11.21 17.59 12.15 14.96 13.71 14.69 13.86 12.5 15.16 12.5 12.05 16.6 9.62 19.18 8.1"/>
</svg>