<?xml version="1.0" encoding="UTF-8"?>
<svg id="Layer_1" data-name="Layer 1" xmlns="http://www.w3.org/2000/svg" viewBox="0 0 204.98 45">
  <defs>
    <style>
      .cls-1 {
        fill: #fff;
      }

      .cls-2 {
        fill: #17bcb5;
      }

      .cls-3 {
        fill: #ebeced;
      }
    </style>
  </defs>
  <g>
    <rect class="cls-2" y=".04" width="44.27" height="44.27" rx="3.25" ry="3.25"/>
    <polygon class="cls-1" points="21.39 31.49 21.39 37.28 17.36 34.89 14.38 33.13 9.03 29.97 9.03 24.21 9.06 24.2 13.93 27.08 14.42 27.37 19.27 30.24 21.39 31.49"/>
    <polygon class="cls-3" points="35.38 24.2 35.38 24.24 30.56 27.08 27.69 25.38 27.59 25.32 32.44 22.46 32.83 22.69 35.38 24.2"/>
    <polygon class="cls-1" points="35.38 24.24 35.38 30.03 27.15 34.89 23.06 37.31 23.06 31.52 25.23 30.24 30.08 27.37 30.56 27.08 35.38 24.24"/>
    <polygon class="cls-3" points="16.91 25.32 16.83 25.37 16.82 25.37 13.93 27.08 9.06 24.2 9.54 23.91 12.03 22.43 16.91 25.32"/>
    <polygon class="cls-1" points="21.39 22.23 21.39 27.97 17.4 25.61 17.4 25.61 16.91 25.32 12.03 22.43 9.04 20.67 9.03 20.66 9.03 14.99 9.09 14.96 13.9 17.8 21.39 22.23"/>
    <polygon class="cls-3" points="35.38 14.92 35.38 14.98 30.63 17.79 23.06 13.32 23.06 7.63 27.07 10 35.38 14.92"/>
    <polygon class="cls-3" points="21.39 7.69 21.39 13.37 13.9 17.8 9.09 14.96 17.46 10.01 17.47 10.01 21.39 7.69"/>
    <polygon class="cls-1" points="35.38 14.98 35.38 20.72 32.44 22.46 27.59 25.32 27.1 25.61 23.06 28 23.06 22.26 30.63 17.79 35.38 14.98"/>
  </g>
  <g>
    <g>
      <path class="cls-2" d="M150.83,23.32c-.17-.07-.35-.12-.52-.18,1.07-.57,1.93-1.29,2.56-2.18.72-1.03,1.08-2.23,1.08-3.6,0-2.08-.86-3.76-2.59-5.05-1.73-1.28-4.34-1.92-7.84-1.92h-13.63v26.66h14.39c3.58,0,6.3-.64,8.17-1.92,1.87-1.28,2.8-3.08,2.8-5.39,0-1.55-.39-2.86-1.16-3.94-.77-1.08-1.86-1.9-3.26-2.48ZM142.53,15.84c1.27,0,2.22.21,2.86.63.63.42.95,1.06.95,1.92s-.32,1.51-.95,1.94c-.63.43-1.59.65-2.86.65h-5.18v-5.14h5.18ZM146.62,30.94c-.67.44-1.66.67-2.95.67h-6.32v-5.41h6.32c1.29,0,2.28.22,2.95.67.67.45,1.01,1.12,1.01,2.04s-.34,1.59-1.01,2.04Z"/>
      <path class="cls-2" d="M175.02,17.72c-1.71-.87-3.65-1.31-5.84-1.31s-4.13.44-5.82,1.31c-1.7.87-3.03,2.08-4,3.63-.97,1.55-1.46,3.33-1.46,5.34s.49,3.8,1.46,5.36c.97,1.56,2.3,2.78,4,3.67,1.7.88,3.64,1.33,5.82,1.33s4.13-.44,5.84-1.33c1.71-.88,3.04-2.11,4-3.67.96-1.56,1.44-3.35,1.44-5.36s-.48-3.8-1.44-5.34c-.96-1.55-2.29-2.76-4-3.63ZM172.83,29.29c-.37.73-.87,1.27-1.49,1.64-.63.37-1.35.55-2.16.55s-1.49-.18-2.12-.55c-.63-.37-1.13-.91-1.51-1.64-.38-.72-.57-1.59-.57-2.6s.19-1.86.57-2.56c.38-.7.88-1.23,1.51-1.6.63-.37,1.33-.55,2.12-.55s1.53.18,2.16.55c.63.37,1.12.9,1.49,1.6.37.7.55,1.55.55,2.56s-.18,1.87-.55,2.6Z"/>
      <polygon class="cls-2" points="204.98 37.05 197.1 26.48 204.71 16.41 197.06 16.41 193.26 21.63 189.59 16.41 181.44 16.41 189.08 26.73 181.22 37.05 189.06 37.05 193.01 31.65 196.71 37.05 204.98 37.05"/>
    </g>
    <g>
      <polygon points="54.14 37.05 61.68 37.05 61.68 27.91 73.45 27.91 73.45 22.08 61.68 22.08 61.68 16.22 75.05 16.22 75.05 10.39 54.14 10.39 54.14 37.05"/>
      <rect x="78.25" y="10.39" width="7.24" height="26.66"/>
      <rect x="90.17" y="18.77" width="7.24" height="18.28"/>
      <path d="M123.72,21.26c-.89-1.54-2.09-2.73-3.61-3.58-1.52-.85-3.2-1.27-5.06-1.27s-3.35.37-4.57,1.11c-.55.33-1.02.76-1.45,1.25v-2.35h-6.81v28.55h7.15v-10.03c.38.39.78.74,1.24,1.02,1.23.75,2.71,1.13,4.44,1.13,1.86,0,3.54-.42,5.06-1.25,1.52-.84,2.72-2.03,3.61-3.58.89-1.55,1.34-3.38,1.34-5.5s-.45-3.94-1.34-5.48ZM117.25,29.32c-.39.71-.9,1.25-1.54,1.62-.64.37-1.36.55-2.16.55s-1.52-.18-2.16-.55-1.15-.91-1.54-1.62c-.39-.71-.58-1.58-.58-2.58s.19-1.87.58-2.58c.39-.71.9-1.25,1.54-1.62.64-.37,1.36-.55,2.16-.55s1.52.18,2.16.55c.64.37,1.15.91,1.54,1.62.39.71.58,1.58.58,2.58s-.19,1.87-.58,2.58Z"/>
      <circle cx="93.78" cy="12.22" r="4.19"/>
    </g>
  </g>
</svg>